#N canvas 1 236 888 545 10;
#X obj 152 117 adc~;
#X obj 126 348 dac~;
#X obj 201 79 osc~;
#X obj 242 146 *~;
#X obj 242 197 clip~ -1 1;
#X obj 134 306 *~;
#X obj 299 124 hsl 128 15 1 20 1 0 empty empty empty -2 -8 0 10 -262144
-1 -1 12700 1;
#X obj 254 56 hsl 128 15 0.5 25 0 0 empty empty empty -2 -8 0 10 -262144
-1 -1 5800 1;
#X obj 242 280 *~;
#X obj 242 309 +~;
#X obj 322 263 hsl 128 15 0 0.5 0 0 empty empty empty -2 -8 0 10 -262144
-1 -1 12700 1;
#X floatatom 319 282 5 0 0 0 - - -, f 5;
#X obj 305 309 expr 1-$f1;
#X floatatom 305 331 5 0 0 0 - - -, f 5;
#X obj 600 62 \; Impt py Distortion_Case1;
#X obj 619 98 r audio_on_off;
#X msg 621 139 \; py dsp \$1;
#X text 568 22 Recieve Input from Python:;
#X text 582 43 (Only needed to import once);
#X obj 600 238 route 0 1;
#X obj 590 311 s audio_on_off;
#X obj 603 209 netreceive 4000;
#X obj 617 285 s volume;
#X floatatom 137 83 5 0 0 0 - - -, f 5;
#X floatatom 284 93 5 0 0 0 - - -, f 5;
#X floatatom 326 160 5 0 0 0 - - -, f 5;
#X connect 0 0 5 0;
#X connect 2 0 3 0;
#X connect 2 0 23 0;
#X connect 3 0 4 0;
#X connect 4 0 8 0;
#X connect 5 0 1 0;
#X connect 5 0 1 1;
#X connect 6 0 3 1;
#X connect 6 0 25 0;
#X connect 7 0 2 0;
#X connect 7 0 24 0;
#X connect 8 0 9 0;
#X connect 9 0 5 1;
#X connect 10 0 11 0;
#X connect 10 0 8 1;
#X connect 10 0 12 0;
#X connect 12 0 9 1;
#X connect 12 0 13 0;
#X connect 15 0 16 0;
#X connect 16 0 7 0;
#X connect 19 0 20 0;
#X connect 19 1 22 0;
#X connect 19 2 10 0;
#X connect 21 0 19 0;
