#N canvas 1 236 640 381 10;
#X obj 108 28 adc~;
#X obj 161 305 dac~;
#X obj 107 87 *~ 40;
#X obj 177 188 clip~ -0.5 0.5;
#X obj 355 50 \; Impt py Distortion_Case1;
#X obj 374 86 r audio_on_off;
#X msg 356 110 \; py dsp \$1;
#X text 323 10 Recieve Input from Python:;
#X text 337 31 (Only needed to import once);
#X obj 353 235 route 0 1;
#X obj 345 299 s audio_on_off;
#X obj 358 197 netreceive 4000;
#X obj 372 273 s volume;
#X connect 0 0 2 0;
#X connect 2 0 3 0;
#X connect 3 0 1 0;
#X connect 3 0 1 1;
#X connect 5 0 6 0;
#X connect 6 0 3 1;
#X connect 9 0 10 0;
#X connect 9 1 12 0;
#X connect 9 2 3 2;
#X connect 11 0 9 0;
