#N canvas 1 236 1024 502 10;
#X obj 178 349 freeverb~;
#X msg 262 54 roomsize \$1;
#X msg 261 115 damping \$1;
#X msg 257 185 wet \$1;
#X msg 256 206 dry \$1;
#X msg 275 275 freeze \$1;
#X msg 275 315 bypass \$1;
#X obj 177 20 adc~;
#X obj 178 465 dac~;
#X obj 275 258 tgl 15 0 empty empty empty 17 7 0 10 -262144 -1 -1 0
1;
#X obj 275 298 tgl 15 0 empty empty empty 17 7 0 10 -262144 -1 -1 1
1;
#X obj 389 148 hsl 128 15 0 1 0 0 empty empty empty -2 -8 0 10 -4032
-1 -1 12700 1;
#X floatatom 386 167 5 0 0 0 - - -, f 5;
#X obj 317 189 expr 1-$f1;
#X obj 387 33 hsl 128 15 0 1 0 0 empty empty empty -2 -8 0 10 -4034
-1 -1 7000 1;
#X obj 389 90 hsl 128 15 0 1 0 0 empty empty empty -2 -8 0 10 -260097
-1 -1 8000 1;
#X floatatom 386 110 5 0 0 0 - - -, f 5;
#X floatatom 384 58 5 0 0 0 - - -, f 5;
#X obj 829 96 r audio_on_off;
#X msg 831 137 \; py dsp \$1;
#X text 778 20 Recieve Input from Python:;
#X text 792 41 (Only needed to import once);
#X obj 808 245 route 0 1;
#X obj 800 309 s audio_on_off;
#X obj 813 207 netreceive 4000;
#X obj 827 283 s volume;
#X obj 810 60 \; Impt py Reverb;
#X connect 0 0 8 0;
#X connect 0 0 8 1;
#X connect 1 0 0 0;
#X connect 2 0 0 0;
#X connect 3 0 0 0;
#X connect 4 0 0 0;
#X connect 5 0 0 0;
#X connect 6 0 0 0;
#X connect 7 0 0 0;
#X connect 9 0 5 0;
#X connect 10 0 6 0;
#X connect 11 0 12 0;
#X connect 11 0 3 0;
#X connect 11 0 13 0;
#X connect 13 0 4 0;
#X connect 14 0 1 0;
#X connect 14 0 17 0;
#X connect 15 0 2 0;
#X connect 15 0 16 0;
#X connect 18 0 19 0;
#X connect 19 0 7 0;
#X connect 22 0 23 0;
#X connect 22 1 25 0;
#X connect 22 2 13 0;
#X connect 24 0 22 0;
