#N canvas 240 312 892 516 10;
#X obj 80 -71 adc~;
#X obj 79 322 dac~;
#X obj 338 122 *~ 2;
#X obj 338 142 +~ 2;
#X obj 377 164 *~ 2;
#X obj 376 187 +~ 2;
#X obj 116 201 delwrite~ phase2 100;
#X obj 376 213 vd~ phase2;
#X obj 377 120 wrap~;
#X obj 347 65 phasor~;
#X obj 376 99 +~ 0.5;
#X obj 338 99 cos~;
#X obj 377 140 cos~;
#X obj 376 236 *~ 0.8;
#X obj 338 297 *~ 0.8;
#X obj 447 324 s~ output;
#X obj 123 300 r~ output;
#X obj 339 274 vd~ phase1;
#X obj 195 -36 delwrite~ phase1 100;
#X floatatom 530 11 5 0 0 0 - - -, f 5;
#X floatatom 471 108 5 0 0 0 - - -, f 5;
#X floatatom 622 236 5 0 0 0 - - -, f 5;
#X text 672 231 -1 to +1;
#X text 523 111 0 to 3;
#X text 588 20 0 to 10;
#X text 252 30;
#X text 410 65;
#X text 448 210;
#X text 442 274;
#X connect 0 0 1 0;
#X connect 0 0 1 1;
#X connect 0 0 6 0;
#X connect 0 0 18 0;
#X connect 2 0 3 0;
#X connect 3 0 17 0;
#X connect 4 0 5 0;
#X connect 5 0 7 0;
#X connect 7 0 13 0;
#X connect 7 0 15 0;
#X connect 8 0 12 0;
#X connect 9 0 10 0;
#X connect 9 0 11 0;
#X connect 10 0 8 0;
#X connect 11 0 2 0;
#X connect 12 0 4 0;
#X connect 13 0 6 0;
#X connect 14 0 18 0;
#X connect 16 0 1 1;
#X connect 16 0 1 0;
#X connect 17 0 14 0;
#X connect 17 0 15 0;
#X connect 19 0 9 0;
#X connect 20 0 2 1;
#X connect 20 0 3 1;
#X connect 20 0 4 1;
#X connect 20 0 5 1;
#X connect 21 0 13 1;
#X connect 21 0 14 1;
